<?xml version="1.0" encoding="UTF-8"?>
<svg
  width="120"
  height="120"
  viewBox="0 0 120 120"
  fill="none"
  xmlns="http://www.w3.org/2000/svg"
>
  <!-- Soft elegant white background container card matching the source image -->
  <rect
    x="6"
    y="6"
    width="108"
    height="108"
    rx="25"
    fill="#FFFFFF"
    stroke="#F1F5F9"
    stroke-width="1.5"
  />

  <!-- The Document Sheet Card inside -->
  <!-- Document outer stroke has dual color: bottom/right is red gradient while top/left is dark slate -->
  <rect
    x="28"
    y="24"
    width="64"
    height="72"
    rx="10"
    fill="#FFFFFF"
    stroke="url(#docify-document-border-gradient)"
    stroke-width="4.5"
    stroke-linejoin="round"
  />

  <!-- Decorative corner curve matching the paper fold flap -->
  <path
    d="M74 24.5 L74 34.5 C74 36.5 75.5 38 77.5 38 L87.5 38"
    fill="none"
    stroke="url(#docify-document-border-gradient)"
    stroke-width="4.5"
    stroke-linecap="round"
    stroke-linejoin="round"
  />

  <!-- Soft horizontal text indicator placeholder lines -->
  <line x1="44" y1="42" x2="68" y2="42" stroke="#E2E8F0" stroke-width="4.5" stroke-linecap="round" />
  <line x1="44" y1="52" x2="68" y2="52" stroke="#E2E8F0" stroke-width="4.5" stroke-linecap="round" />
  <line x1="44" y1="62" x2="58" y2="62" stroke="#E2E8F0" stroke-width="4.5" stroke-linecap="round" />

  <!-- Elegant glowing Crimson Red handwritten signature -->
  <path
    d="M44 84 C48 84 50 72 52 72 C55 72 55 81 58 81 C60 81 61 78 63 78 C65 78 66 80 69 73"
    fill="none"
    stroke="url(#docify-signature-red)"
    stroke-width="4"
    stroke-linecap="round"
    stroke-linejoin="round"
  />

  <!-- Custom Diagonal Crimson Glossy Signature Pen -->
  <!-- We place it over the canvas, pointing to (69, 73) where the signature ends -->
  <!-- Angled beautiful glossy pen body -->
  <g transform="translate(69, 73) rotate(-35)">
    <!-- Silver Metal Tip Collar -->
    <path
      d="M 0 0 L 10 -4.5 L 10 4.5 Z"
      fill="url(#docify-pen-silver)"
    />
    <!-- Fine steel point -->
    <path
      d="M 0 0 L 3 -1.3 L 3 1.3 Z"
      fill="#334155"
    />
    <!-- Black band divider -->
    <rect
      x="10"
      y="-5"
      width="2.5"
      height="10"
      fill="#0F172A"
    />
    <!-- Shiny Red Pen Barrel Grip -->
    <path
      d="M 12.5 -5 L 48 -5.5 C 50.5 -5.5 52 -3.5 52 0 C 52 3.5 50.5 5.5 48 5.5 L 12.5 5 Z"
      fill="url(#docify-pen-red)"
    />
    <!-- Steel Pocket Pen Clip overlay -->
    <path
      d="M 30 -1.5 L 46 -1.8 L 46 -3.5 L 30 -3 Z"
      fill="url(#docify-pen-clip)"
    />
    <!-- Glassy reflection highlight -->
    <path
      d="M 14.5 -2.5 L 45 -2.7 L 45 -1 L 14.5 -1 Z"
      fill="#FFFFFF"
      opacity="0.33"
    />
  </g>

  <!-- Unified gradients definition block -->
  <defs>
    <!-- Custom Document Border Gradient: left/top is slate-800, right/bottom is gorgeous glossy red -->
    <linearGradient id="docify-document-border-gradient" x1="28" y1="24" x2="92" y2="96" gradientUnits="userSpaceOnUse">
      <stop offset="0" stop-color="#1E293B" />
      <stop offset="0.45" stop-color="#334155" />
      <stop offset="0.75" stop-color="#EF4444" />
      <stop offset="1" stop-color="#B91C1C" />
    </linearGradient>

    <!-- Signature Ink Color -->
    <linearGradient id="docify-signature-red" x1="44" y1="72" x2="69" y2="84" gradientUnits="userSpaceOnUse">
      <stop stop-color="#F43F5E" />
      <stop offset="1" stop-color="#E11D48" />
    </linearGradient>

    <!-- Glossy Red Pen Gradient -->
    <linearGradient id="docify-pen-red" x1="12.5" y1="0" x2="52" y2="0" gradientUnits="userSpaceOnUse">
      <stop stop-color="#FF3B5D" />
      <stop offset="0.3" stop-color="#E11D48" />
      <stop offset="1" stop-color="#9F1239" />
    </linearGradient>

    <!-- Chrome / Silver Metallic Nib Gradient -->
    <linearGradient id="docify-pen-silver" x1="0" y1="0" x2="10" y2="0" gradientUnits="userSpaceOnUse">
      <stop stop-color="#E2E8F0" />
      <stop offset="0.5" stop-color="#94A3B8" />
      <stop offset="1" stop-color="#CBD5E1" />
    </linearGradient>

    <!-- Pocket Clip Silver -->
    <linearGradient id="docify-pen-clip" x1="30" y1="0" x2="46" y2="0" gradientUnits="userSpaceOnUse">
      <stop stop-color="#FFFFFF" />
      <stop offset="1" stop-color="#94A3B8" />
    </linearGradient>
  </defs>
</svg>
